
<svg width="100" height="100" viewBox="0 0 100 100" fill="none" xmlns="http://www.w3.org/2000/svg">
<rect x="1.5" y="1.5" width="97" height="97" rx="18.5" fill="white" stroke="#DDDDDD" stroke-width="3"/>
<path d="M30 45.0667C30 35.1688 38.7811 27 49.8 27C60.8189 27 69.6 35.1688 69.6 45.0667C69.6 47.1781 69.2033 49.4463 68.4626 51.686C67.5253 54.5201 65.585 56.9887 63.3138 59.4592C62.6978 60.1292 62.0524 60.8039 61.3999 61.486C59.8222 63.1353 58.2035 64.8274 56.8607 66.6H56.8504H56.8195H56.7888H56.7582H56.7278H56.6975H56.6673H56.6373H56.6074H56.5777H56.548H56.5186H56.4892H56.46H56.4309H56.402H56.3732H56.3445H56.316H56.2875H56.2593H56.2311H56.2031H56.1752H56.1475H56.1199H56.0924H56.065H56.0378H56.0107H55.9837H55.9568H55.9301H55.9035H55.877H55.8507H55.8245H55.7984H55.7724H55.7465H55.7208H55.6952H55.6697H55.6444H55.6191H55.594H55.569H55.5441H55.5194H55.4948H55.4702H55.4458H55.4216H55.3974H55.3733H55.3494H55.3256H55.3019H55.2783H55.2549H55.2315H55.2083H55.1851H55.1621H55.1392H55.1164H55.0938H55.0712H55.0487H55.0264H55.0042H54.982H54.96H54.9381H54.9163H54.8946H54.8731H54.8516H54.8302H54.8089H54.7878H54.7667H54.7458H54.7249H54.7042H54.6836H54.663H54.6426H54.6223H54.6021H54.5819H54.5619H54.542H54.5222H54.5024H54.4828H54.4633H54.4438H54.4245H54.4053H54.3861H54.3671H54.3482H54.3293H54.3106H54.2919H54.2733H54.2549H54.2365H54.2182H54.2H54.1819H54.1639H54.146H54.1281H54.1104H54.0927H54.0752H54.0577H54.0403H54.023H54.0058H53.9887H53.9717H53.9547H53.9379H53.9211H53.9044H53.8878H53.8713H53.8548H53.8385H53.8222H53.806H53.7899H53.7738H53.7579H53.742H53.7262H53.7105H53.6949H53.6793H53.6639H53.6485H53.6332H53.6179H53.6028H53.5877H53.5726H53.5577H53.5428H53.5281H53.5133H53.4987H53.4841H53.4696H53.4552H53.4409H53.4266H53.4124H53.3982H53.3841H53.3701H53.3562H53.3423H53.3285H53.3148H53.3012H53.2876H53.274H53.2606H53.2472H53.2338H53.2206H53.2074H53.1942H53.1811H53.1681H53.1552H53.1423H53.1294H53.1167H53.104H53.0913H53.0787H53.0662H53.0537H53.0413H53.029H53.0167H53.0044H52.9922H52.9801H52.968H52.956H52.9441H52.9321H52.9203H52.9085H52.8967H52.885H52.8734H52.8618H52.8503H52.8388H52.8273H52.8159H52.8046H52.7933H52.7821H52.7709H52.7597H52.7486H52.7376H52.7266H52.7156H52.7047H52.6938H52.683H52.6722H52.6615H52.6508H52.6401H52.6295H52.6189H52.6084H52.5979H52.5875H52.5771H52.5667H52.5564H52.5461H52.5359H52.5256H52.5155H52.5053H52.4952H52.4852H52.4751H52.4651H52.4552H52.4453H52.4354H52.4255H52.4157H52.4059H52.3962H52.3864H52.3767H52.3671H52.3574H52.3478H52.3383H52.3287H52.3192H52.3097H52.3002H52.2908H52.2814H52.272H52.2627H52.2533H52.244H52.2348H52.2255H52.2163H52.2071H52.1979H52.1887H52.1796H52.1705H52.1614H52.1523H52.1432H52.1342H52.1252H52.1162H52.1072H52.0982H52.0893H52.0804H52.0714H52.0625H52.0537H52.0448H52.036H52.0271H52.0183H52.0095H52.0007H51.9919H51.9832H51.9744H51.9656H51.9569H51.9482H51.9395H51.9308H51.9221H51.9134H51.9047H51.896H51.8874H51.8787H51.8701H51.8614H51.8528H51.8442H51.8355H51.8269H51.8183H51.8097H51.8011H51.7924H51.7838H51.7752H51.7666H51.758H51.7494H51.7408H51.7322H51.7236H51.715H51.7064H51.6978H51.6892H51.6805H51.6719H51.6633H51.6547H51.646H51.6374H51.6287H51.6201H51.6114H51.6028H51.5941H51.5854H51.5767H51.568H51.5593H51.5506H51.5419H51.5331H51.5244H51.5156H51.5068H51.498H51.4892H51.4804H51.4716H51.4627H51.4539H51.445H51.4361H51.4272H51.4183H51.4094H51.4004H51.3914H51.3825H51.3734H51.3644H51.3554H51.3463H51.3372H51.3281H51.319H51.3098H51.3006H51.2914H51.2822H51.273H51.2637H51.2544H51.2451H51.2358H51.2264H51.217H51.2076H51.1981H51.1886H51.1791H51.1696H51.16H51.1505H51.1408H51.1312H51.1215H51.1118H51.102H51.0923H51.0825H51.0726H51.0627H51.0528H51.0429H51.0329H51.0229H51.0129H51.0028H50.9926H50.9825H50.9723H50.9621H50.9518H50.9415H50.9311H50.9207H50.9103H50.8999H50.8893H50.8788H50.8682H50.8576H50.8469H50.8362H50.8254H50.8146H50.8038H50.7929H50.7819H50.7709H50.7599H50.7488H50.7377H50.7265H50.7153H50.704H50.6927H50.6813H50.6699H50.6584H50.6469H50.6354H50.6237H50.6121H50.6003H50.5886H50.5767H50.5648H50.5529H50.5409H50.5289H50.5168H50.5046H50.4924H50.4801H50.4678H50.4554H50.4429H50.4304H50.4179H50.4053H50.3926H50.3798H50.367H50.3542H50.3412H50.3282H50.3152H50.3021H50.2889H50.2757H50.2624H50.249H50.2356H50.2221H50.2085H50.1949H50.1812H50.1674H50.1535H50.1396H50.1257H50.1116H50.0975H50.0833H50.0691H50.0548H50.0404H50.0259H50.0114H49.9968H49.9821H49.9673H49.9525H49.9376H49.9226H49.9075H49.8924H49.8772H49.8619H49.8466H49.8311H49.8156H49.8H49.7844H49.7689H49.7534H49.7381H49.7228H49.7076H49.6925H49.6774H49.6624H49.6475H49.6327H49.6179H49.6032H49.5886H49.5741H49.5596H49.5452H49.5309H49.5167H49.5025H49.4884H49.4743H49.4604H49.4465H49.4326H49.4188H49.4051H49.3915H49.3779H49.3644H49.351H49.3376H49.3243H49.3111H49.2979H49.2848H49.2718H49.2588H49.2458H49.233H49.2202H49.2074H49.1947H49.1821H49.1696H49.1571H49.1446H49.1322H49.1199H49.1076H49.0954H49.0832H49.0711H49.0591H49.0471H49.0352H49.0233H49.0114H48.9997H48.9879H48.9763H48.9646H48.9531H48.9416H48.9301H48.9187H48.9073H48.896H48.8847H48.8735H48.8623H48.8512H48.8401H48.8291H48.8181H48.8071H48.7962H48.7854H48.7746H48.7638H48.7531H48.7424H48.7318H48.7212H48.7107H48.7001H48.6897H48.6792H48.6689H48.6585H48.6482H48.6379H48.6277H48.6175H48.6073H48.5972H48.5871H48.5771H48.5671H48.5571H48.5472H48.5373H48.5274H48.5175H48.5077H48.498H48.4882H48.4785H48.4688H48.4592H48.4495H48.44H48.4304H48.4209H48.4114H48.4019H48.3924H48.383H48.3736H48.3642H48.3549H48.3456H48.3363H48.327H48.3178H48.3086H48.2994H48.2902H48.281H48.2719H48.2628H48.2537H48.2446H48.2356H48.2266H48.2175H48.2086H48.1996H48.1906H48.1817H48.1728H48.1639H48.155H48.1461H48.1372H48.1284H48.1196H48.1108H48.102H48.0932H48.0844H48.0756H48.0669H48.0581H48.0494H48.0407H48.032H48.0233H48.0146H48.0059H47.9972H47.9886H47.9799H47.9713H47.9626H47.954H47.9453H47.9367H47.9281H47.9195H47.9108H47.9022H47.8936H47.885H47.8764H47.8678H47.8592H47.8506H47.842H47.8334H47.8248H47.8162H47.8075H47.7989H47.7903H47.7817H47.7731H47.7645H47.7558H47.7472H47.7386H47.7299H47.7213H47.7126H47.704H47.6953H47.6866H47.6779H47.6692H47.6605H47.6518H47.6431H47.6344H47.6256H47.6168H47.6081H47.5993H47.5905H47.5817H47.5729H47.564H47.5552H47.5463H47.5375H47.5286H47.5196H47.5107H47.5018H47.4928H47.4838H47.4748H47.4658H47.4568H47.4477H47.4386H47.4295H47.4204H47.4113H47.4021H47.3929H47.3837H47.3745H47.3652H47.356H47.3467H47.3373H47.328H47.3186H47.3092H47.2998H47.2903H47.2808H47.2713H47.2617H47.2522H47.2426H47.2329H47.2233H47.2136H47.2038H47.1941H47.1843H47.1745H47.1646H47.1547H47.1448H47.1349H47.1249H47.1148H47.1048H47.0947H47.0845H47.0744H47.0641H47.0539H47.0436H47.0333H47.0229H47.0125H47.0021H46.9916H46.9811H46.9705H46.9599H46.9492H46.9385H46.9278H46.917H46.9062H46.8953H46.8844H46.8734H46.8624H46.8514H46.8403H46.8291H46.8179H46.8067H46.7954H46.7841H46.7727H46.7612H46.7497H46.7382H46.7266H46.715H46.7033H46.6915H46.6797H46.6679H46.6559H46.644H46.632H46.6199H46.6078H46.5956H46.5833H46.571H46.5587H46.5463H46.5338H46.5213H46.5087H46.496H46.4833H46.4706H46.4577H46.4448H46.4319H46.4189H46.4058H46.3926H46.3794H46.3662H46.3528H46.3394H46.326H46.3124H46.2988H46.2852H46.2715H46.2577H46.2438H46.2299H46.2159H46.2018H46.1876H46.1734H46.1591H46.1448H46.1304H46.1159H46.1013H46.0867H46.0719H46.0572H46.0423H46.0273H46.0123H45.9972H45.9821H45.9668H45.9515H45.9361H45.9207H45.9051H45.8895H45.8738H45.858H45.8421H45.8262H45.8101H45.794H45.7778H45.7615H45.7452H45.7287H45.7122H45.6956H45.6789H45.6621H45.6453H45.6283H45.6113H45.5942H45.577H45.5597H45.5423H45.5248H45.5073H45.4896H45.4719H45.454H45.4361H45.4181H45.4H45.3818H45.3635H45.3451H45.3267H45.3081H45.2894H45.2707H45.2518H45.2329H45.2139H45.1947H45.1755H45.1562H45.1367H45.1172H45.0976H45.0778H45.058H45.0381H45.0181H44.9979H44.9777H44.9574H44.937H44.9164H44.8958H44.8751H44.8542H44.8333H44.8122H44.7911H44.7698H44.7484H44.7269H44.7054H44.6837H44.6619H44.64H44.618H44.5958H44.5736H44.5513H44.5288H44.5062H44.4836H44.4608H44.4379H44.4149H44.3917H44.3685H44.3451H44.3217H44.2981H44.2744H44.2506H44.2267H44.2026H44.1784H44.1542H44.1298H44.1052H44.0806H44.0559H44.031H44.006H43.9809H43.9556H43.9303H43.9048H43.8792H43.8535H43.8276H43.8016H43.7755H43.7493H43.723H43.6965H43.6699H43.6432H43.6163H43.5893H43.5622H43.535H43.5076H43.4801H43.4525H43.4248H43.3969H43.3689H43.3407H43.3125H43.284H43.2555H43.2268H43.198H43.1691H43.14H43.1108H43.0814H43.052H43.0223H42.9926H42.9627H42.9327H42.9025H42.8722H42.8418H42.8112H42.7804H42.7496H42.7393C41.3965 64.8274 39.7778 63.1353 38.2001 61.486C37.5476 60.8039 36.9022 60.1292 36.2862 59.4592C34.015 56.9887 32.0747 54.5201 31.1374 51.686C30.3967 49.4463 30 47.1781 30 45.0667Z" stroke="#DDDDDD" stroke-width="2"/>
<path d="M43.5601 69.68H56.0401" stroke="#DDDDDD" stroke-width="2" stroke-linecap="round"/>
<path d="M45.64 73.84H53.96" stroke="#DDDDDD" stroke-width="2" stroke-linecap="round"/>
<path d="M41 46.84L48.28 55.16L59.1 43" stroke="#DDDDDD" stroke-width="3" stroke-linecap="round"/>
</svg>
